# Blender v2.78 (sub 0) OBJ File: '10.blend'
# www.blender.org
mtllib Ice_Skates_01.mtl
g Ice_Skate_Cube
v 0.452435 2.076245 3.640372
v -1.396039 3.762311 2.842012
v 0.452435 2.192444 3.640372
v -1.396039 3.762311 0.402572
v 1.357306 2.192444 0.391998
v 1.396039 3.762311 2.842012
v 1.357306 2.076245 0.391998
v 1.396039 3.762311 0.402572
v -1.264477 3.072768 -2.732188
v 1.357306 2.076245 2.877385
v 1.357306 2.192444 2.877385
v 1.264477 3.072768 -2.732188
v -1.396039 7.121770 2.958882
v -1.396039 7.121770 0.192179
v 1.396039 7.121770 0.192179
v 1.396039 7.121770 2.958882
v -0.462981 4.242124 -0.729339
v 0.462981 4.242124 -0.729339
v -1.357306 2.192444 2.877385
v -1.357306 2.076245 2.877385
v 0.465346 3.762311 3.626772
v -0.465346 3.762311 3.626772
v -1.357306 2.076245 0.391998
v -1.357306 2.192444 0.391998
v -0.422182 3.564047 -3.716402
v 0.422182 3.564047 -3.716402
v -0.465346 7.121770 -0.474655
v 0.465346 7.121770 -0.474655
v 0.465346 7.121770 3.743642
v -0.465346 7.121770 3.743642
v -0.962368 7.121770 2.570989
v -1.099282 7.140966 0.606218
v 0.320789 7.121770 0.138702
v 1.099282 7.140966 0.606218
v 0.962368 7.121770 2.570989
v -0.320789 7.121770 3.111968
v -0.320789 7.121770 0.138702
v 0.320789 7.121770 3.111968
v -0.962368 3.621023 2.570989
v -0.962368 3.621023 0.808781
v 0.320789 3.621023 0.349094
v 0.962368 3.621023 0.808781
v 0.962368 3.621023 2.570989
v -0.320789 3.621023 3.111968
v -0.320789 3.621023 0.349094
v 0.320789 3.621023 3.111968
v 0.528832 8.282384 -0.731114
v 1.586495 8.282384 0.026694
v -1.586495 8.282384 0.026694
v -0.528832 8.282384 -0.731114
v 1.129074 8.264111 0.248727
v 0.329483 8.281460 -0.216341
v -1.129074 8.264111 0.248727
v -0.329483 8.281460 -0.216341
v -0.465346 1.445872 0.402572
v 0.465346 1.445872 0.402572
v -1.396039 1.791778 0.402572
v -1.128664 1.445872 0.402572
v -1.128664 1.445872 2.810801
v -1.396039 1.791778 2.958882
v 1.128664 1.445872 2.810801
v 1.396039 1.791778 2.958882
v 1.128664 1.445872 0.402572
v 1.396039 1.791778 0.402572
v 0.465346 1.791778 3.743642
v 0.465346 1.445872 3.370111
v -0.423777 1.791778 -3.989115
v -0.430351 1.445872 -3.588310
v -1.042112 1.445872 -2.916854
v -1.271332 1.791778 -3.027823
v 1.042112 1.445872 -2.916854
v 1.271332 1.791778 -3.027823
v -0.465346 1.445872 3.370111
v -0.465346 1.791778 3.743642
v 0.430351 1.445872 -3.588310
v 0.423777 1.791778 -3.989115
v -1.396039 2.074587 2.958882
v -1.396039 2.194102 2.958882
v -1.396039 2.194102 0.402572
v -1.396039 2.074587 0.402572
v 1.396039 2.194102 2.958882
v 1.396039 2.074587 2.958882
v 1.396039 2.074587 0.402572
v 1.396039 2.194102 0.402572
v -1.265125 2.074587 -3.027823
v -1.264477 2.194102 -3.027886
v 1.265125 2.074587 -3.027823
v 1.264477 2.194102 -3.027886
v -0.465346 2.074587 3.743642
v -0.465346 2.194102 3.743642
v 0.465346 2.194102 3.743642
v 0.465346 2.074587 3.743642
v 0.421708 2.074587 -4.038002
v 0.421492 2.194102 -4.062544
v -0.421492 2.194102 -4.062544
v -0.421708 2.074587 -4.038002
v -0.409981 2.192444 -3.954596
v -0.410181 2.076245 -3.930193
v -1.230382 2.076245 -2.943222
v -1.229779 2.192444 -2.943222
v 1.230382 2.076245 -2.943222
v 1.229779 2.192444 -2.943222
v -0.452435 2.076245 3.640372
v -0.452435 2.192444 3.640372
v 0.410181 2.076245 -3.930193
v 0.409981 2.192444 -3.954596
v -1.396039 2.733915 2.958882
v -1.396039 2.733915 0.402572
v -0.465346 2.733915 3.743642
v -1.264477 2.633435 -2.881495
v 1.396039 2.733915 0.402572
v 1.396039 2.733915 2.958882
v 0.465346 2.733915 3.743642
v 1.264477 2.633435 -2.881495
v -0.421492 2.873342 -4.014424
v 0.421492 2.873342 -4.014424
v 0.463501 4.731615 -0.501928
v 0.463250 4.368769 -0.528925
v 0.463894 5.301425 -0.459533
v 0.463645 4.939988 -0.486425
v 0.464288 5.871335 -0.417131
v 0.464039 5.511108 -0.443932
v 0.464682 6.441407 -0.374717
v 0.464434 6.082067 -0.401452
v 0.465076 7.011714 -0.332285
v 0.464828 6.652789 -0.358989
v -0.463250 4.368769 -0.528925
v -0.463501 4.731615 -0.501928
v -0.463645 4.939988 -0.486425
v -0.463894 5.301425 -0.459533
v -0.464039 5.511108 -0.443932
v -0.464288 5.871335 -0.417131
v -0.464434 6.082067 -0.401452
v -0.464682 6.441407 -0.374717
v -0.464828 6.652789 -0.358989
v -0.465076 7.011714 -0.332285
v -0.929766 4.497434 0.012877
v -0.929648 4.127646 0.010668
v -0.929962 5.114174 0.016560
v -0.929845 4.746997 0.014367
v -0.930159 5.731001 0.020244
v -0.930043 5.366261 0.018065
v -0.930356 6.347986 0.023928
v -0.930240 5.985365 0.021763
v -0.930553 6.965218 0.027614
v -0.930438 6.604223 0.025458
v 0.929648 4.127646 0.010668
v 0.929766 4.497434 0.012877
v 0.929845 4.746997 0.014367
v 0.929962 5.114174 0.016560
v 0.930043 5.366261 0.018065
v 0.930159 5.731001 0.020244
v 0.930240 5.985365 0.021763
v 0.930356 6.347986 0.023928
v 0.930438 6.604223 0.025458
v 0.930553 6.965218 0.027614
v -0.463250 4.394522 -0.867602
v -0.463501 4.757368 -0.840606
v 0.463501 4.757368 -0.840606
v 0.463250 4.394522 -0.867602
v -0.463645 4.965741 -0.825103
v -0.463894 5.327178 -0.798211
v 0.463894 5.327178 -0.798211
v 0.463645 4.965741 -0.825103
v -0.464039 5.536861 -0.782610
v -0.464288 5.897088 -0.755808
v 0.464288 5.897088 -0.755808
v 0.464039 5.536861 -0.782610
v -0.464434 6.107819 -0.740130
v -0.464682 6.467158 -0.713394
v 0.464682 6.467158 -0.713394
v 0.464434 6.107819 -0.740130
v -0.464828 6.678541 -0.697667
v -0.465076 7.037467 -0.670962
v 0.465076 7.037467 -0.670962
v 0.464828 6.678541 -0.697667
v -0.929648 4.153399 -0.328009
v -0.929766 4.523187 -0.325801
v -0.929845 4.772750 -0.324310
v -0.929962 5.139927 -0.322118
v -0.930043 5.392014 -0.320612
v -0.930159 5.756754 -0.318434
v -0.930240 6.011117 -0.316915
v -0.930356 6.373739 -0.314749
v -0.930438 6.629976 -0.313219
v -0.930553 6.990971 -0.311063
v 0.929766 4.523187 -0.325801
v 0.929648 4.153399 -0.328009
v 0.929962 5.139927 -0.322118
v 0.929845 4.772750 -0.324310
v 0.930159 5.756754 -0.318434
v 0.930043 5.392014 -0.320612
v 0.930356 6.373739 -0.314749
v 0.930240 6.011117 -0.316915
v 0.930553 6.990971 -0.311063
v 0.930438 6.629976 -0.313219
v 0.063862 1.445872 -2.464742
v -0.063862 1.445872 -2.464742
v 0.063862 1.445872 -2.928195
v -0.063862 1.445872 -2.928195
v 0.063862 1.445872 1.913173
v -0.063862 1.445872 1.913173
v -0.063862 1.445872 2.396019
v 0.063862 1.445872 2.396019
v 0.063862 0.735699 -2.464742
v -0.063862 0.735699 -2.464742
v 0.063862 0.735699 -2.928195
v -0.063862 0.735699 -2.928195
v 0.063862 0.735699 1.913173
v -0.063862 0.735699 1.913173
v -0.063862 0.735699 2.396019
v 0.063862 0.735699 2.396019
v 0.063862 0.003129 -2.464742
v -0.063862 0.003129 -2.464742
v 0.063862 0.003129 -2.928195
v -0.063862 0.003129 -2.928195
v 0.063862 0.003129 1.913173
v -0.063862 0.003129 1.913173
v -0.063862 0.003129 2.396019
v 0.063862 0.003129 2.396019
v 0.063862 0.735699 -4.050386
v -0.063862 0.735699 -4.050386
v 0.063862 0.003129 -4.050386
v -0.063862 0.003129 -4.050386
v -0.063862 0.735699 4.169577
v 0.063862 0.735699 4.169577
v -0.063862 0.003129 4.169577
v 0.063862 0.003129 4.169577
v -0.063862 0.419228 5.019917
v 0.063862 0.419228 5.019917
v -0.063862 0.003129 5.019917
v 0.063862 0.003129 5.019917
v 0.063862 0.850427 -4.292446
v -0.063862 0.850427 -4.292446
v 0.063862 0.201643 -4.632648
v -0.063862 0.201643 -4.632648
v 0.063862 1.134149 -4.459444
v -0.063862 1.134149 -4.459444
v 0.063862 0.869574 -5.142570
v -0.063862 0.869574 -5.142570
v 0.063862 1.417463 -4.547266
v -0.063862 1.417463 -4.547266
v 0.063862 1.429216 -5.279743
v -0.063862 1.429216 -5.279743
v 0.463501 4.075508 -0.986576
v 0.463250 3.998749 -1.342237
v -0.463250 3.998749 -1.342237
v -0.463501 4.075508 -0.986576
v -0.929766 3.617072 -0.553668
v -0.929648 3.514574 -0.908973
v 0.929648 3.514574 -0.908973
v 0.929766 3.617072 -0.553668
v -0.463250 4.219128 -1.325611
v -0.463501 4.295887 -0.969950
v 0.463501 4.295887 -0.969950
v 0.463250 4.219128 -1.325611
v -0.929648 3.846702 -0.980087
v -0.929766 3.949200 -0.624782
v 0.929766 3.949200 -0.624782
v 0.929648 3.846702 -0.980087
v 0.463501 3.943696 -1.581244
v 0.463250 3.866937 -1.936905
v -0.463250 3.866937 -1.936905
v -0.463501 3.943696 -1.581244
v -0.929766 3.485260 -1.148337
v -0.929648 3.382763 -1.503642
v 0.929648 3.382763 -1.503642
v 0.929766 3.485260 -1.148337
v -0.463250 4.087317 -1.920279
v -0.463501 4.164075 -1.564619
v 0.463501 4.164075 -1.564619
v 0.463250 4.087317 -1.920279
v -0.929648 3.714890 -1.574755
v -0.929766 3.817388 -1.219450
v 0.929766 3.817388 -1.219450
v 0.929648 3.714890 -1.574755
vn -0.6422 0.0866 0.7616
vn 0.6422 0.0866 0.7616
vn -1.0000 0.0000 0.0000
vn 0.6327 0.7518 -0.1858
vn 0.6444 -0.0266 0.7642
vn -0.6951 0.0048 -0.7189
vn 1.0000 0.0000 0.0000
vn 0.6951 0.0048 -0.7189
vn 0.0000 0.0881 -0.9961
vn -0.6444 -0.0266 0.7642
vn 0.0000 -0.0348 0.9994
vn -0.6327 0.7518 -0.1858
vn 0.0000 0.9752 -0.2214
vn 0.9992 0.0059 -0.0392
vn 0.7988 0.2210 -0.5595
vn -0.5698 -0.2069 -0.7953
vn 0.5698 -0.2069 -0.7953
vn 0.0000 -0.2158 -0.9764
vn -0.7988 0.2210 -0.5595
vn -0.9991 0.0042 -0.0415
vn 0.0000 0.3962 -0.9182
vn 0.0000 0.1129 0.9936
vn 0.0122 -0.9998 0.0145
vn 0.0434 -0.9991 -0.0017
vn 0.0000 -0.9999 0.0160
vn -0.0122 -0.9998 0.0145
vn 0.0428 -0.9991 0.0000
vn 0.0000 -0.9999 -0.0154
vn 0.6446 0.0000 0.7645
vn -0.7714 -0.0638 -0.6331
vn 0.9993 0.0026 -0.0381
vn -0.9993 0.0026 -0.0381
vn -0.6446 0.0000 0.7645
vn 0.0000 0.0000 1.0000
vn 0.7714 -0.0638 -0.6331
vn 0.0000 -0.2055 -0.9787
vn -0.0428 -0.9991 0.0000
vn -0.0434 -0.9991 -0.0017
vn 0.0163 -0.9998 -0.0133
vn -0.0163 -0.9998 -0.0133
vn 0.0000 0.0707 -0.9975
vn -0.9992 0.0059 -0.0392
vn -0.7906 0.1049 -0.6033
vn 0.7906 0.1049 -0.6033
vn 0.9991 0.0042 -0.0415
vn 0.9992 0.0110 -0.0372
vn 0.7583 -0.0451 -0.6504
vn 0.0000 -1.0000 0.0000
vn -0.9992 0.0110 -0.0372
vn -0.0264 0.9996 0.0048
vn 0.0000 1.0000 0.0000
vn 0.0264 0.9996 0.0048
vn -0.7583 -0.0451 -0.6504
vn 0.0000 -0.1703 -0.9854
vn 0.5463 0.0598 0.8355
vn -0.6446 0.0000 -0.7645
vn -0.5463 0.0598 0.8355
vn 0.4905 0.2672 0.8295
vn -0.4905 0.2672 0.8295
vn -0.6407 0.1121 0.7595
vn -0.9992 0.0184 -0.0366
vn 0.9992 0.0184 -0.0366
vn 0.0000 0.0000 -1.0000
vn 0.0000 0.0600 0.9982
vn 0.6446 0.0000 -0.7645
vn 0.0049 0.9998 0.0217
vn -0.0049 0.9998 0.0217
vn 0.0000 1.0000 0.0018
vn 0.6407 0.1121 0.7595
vn 0.0000 0.2927 0.9562
vn -0.7912 -0.6116 0.0000
vn 0.7912 -0.6116 0.0000
vn 0.4971 -0.6366 0.5896
vn -0.6014 -0.5912 -0.5375
vn 0.8102 -0.5856 -0.0254
vn -0.8102 -0.5856 -0.0254
vn -0.4971 -0.6366 0.5896
vn 0.0000 -0.7337 0.6795
vn 0.6014 -0.5912 -0.5375
vn 0.0000 -0.7571 -0.6534
vn 0.0122 0.9998 0.0145
vn -0.0428 0.9991 0.0000
vn 0.0000 0.9999 0.0161
vn 0.0434 0.9991 -0.0017
vn 0.0161 0.9998 -0.0134
vn -0.0434 0.9991 -0.0017
vn -0.0161 0.9998 -0.0134
vn 0.0428 0.9991 0.0000
vn -0.0122 0.9998 0.0145
vn 0.0000 0.9999 -0.0154
vn 0.0000 -0.0742 0.9972
vn 0.7545 -0.0258 0.6558
vn 0.7284 -0.0270 0.6846
vn 0.6986 -0.0282 0.7149
vn 0.6647 -0.0295 0.7465
vn 0.6261 -0.0309 0.7792
vn -0.7545 -0.0258 0.6558
vn -0.7284 -0.0270 0.6846
vn -0.6986 -0.0282 0.7149
vn -0.6647 -0.0295 0.7465
vn -0.6261 -0.0309 0.7792
vn 0.0000 0.0742 -0.9972
vn -0.7545 0.0258 -0.6558
vn -0.7284 0.0270 -0.6846
vn -0.6986 0.0282 -0.7149
vn -0.6647 0.0295 -0.7465
vn -0.6261 0.0309 -0.7792
vn 0.7545 0.0258 -0.6558
vn 0.7284 0.0270 -0.6846
vn 0.6986 0.0282 -0.7149
vn 0.6647 0.0295 -0.7465
vn 0.6261 0.0309 -0.7792
vn -0.2286 -0.9707 -0.0738
vn 0.0000 -0.9971 -0.0758
vn -0.1339 0.9881 0.0751
vn 0.0000 0.9971 0.0758
vn 0.1339 0.9881 0.0751
vn 0.1368 -0.9877 -0.0751
vn 1.0000 -0.0003 -0.0000
vn -1.0000 -0.0003 -0.0000
vn -0.1368 -0.9877 -0.0751
vn -0.0409 0.9963 0.0758
vn 0.0409 0.9963 0.0758
vn 0.0414 -0.9963 -0.0758
vn -0.3849 0.9203 0.0700
vn 0.3849 0.9203 0.0700
vn 0.3933 -0.9168 -0.0697
vn -0.0414 -0.9963 -0.0758
vn -0.3933 -0.9168 -0.0697
vn -0.3075 0.9488 0.0721
vn 0.3075 0.9488 0.0721
vn 0.3145 -0.9465 -0.0720
vn -0.3145 -0.9465 -0.0720
vn -0.2234 0.9719 0.0739
vn 0.2234 0.9719 0.0739
vn 0.2286 -0.9707 -0.0738
vn 0.0000 -0.9775 0.2110
vn 0.7702 -0.6184 0.1563
vn -0.7702 -0.6184 0.1563
vn 0.0000 0.9775 -0.2110
vn -0.6806 0.7103 -0.1795
vn 0.6806 0.7103 -0.1795
vn 0.0000 0.0752 -0.9972
vn -1.0000 -0.0001 -0.0003
vn 0.5977 0.0787 0.7978
vn -0.5977 0.0787 0.7978
vn -0.5952 -0.0789 -0.7997
vn 1.0000 -0.0001 -0.0003
vn 0.5952 -0.0789 -0.7997
vn 0.0000 -0.0752 0.9972
vn 0.0000 0.9372 0.3488
vn 0.0000 0.9036 0.4283
vn 0.0000 -0.9465 -0.3227
vn 0.0000 0.5073 0.8618
vn 0.0000 -0.6068 -0.7948
vn 0.0000 0.9999 0.0160
vn 0.0000 -0.2381 -0.9712
vn 0.0000 0.2961 0.9552
usemtl 1A1A1A
s off
f 109//1 22//1 2//1 107//1
f 112//2 6//2 21//2 113//2
f 107//3 2//3 4//3 108//3
f 4//3 2//3 13//3 14//3
f 18//4 8//4 12//4 26//4
f 21//5 6//5 16//5 29//5
f 17//6 4//6 14//6 27//6
f 6//7 8//7 15//7 16//7
f 8//8 18//8 28//8 15//8
f 18//9 17//9 27//9 28//9
f 2//10 22//10 30//10 13//10
f 22//11 21//11 29//11 30//11
f 4//12 17//12 25//12 9//12
f 17//13 18//13 26//13 25//13
f 111//14 84//14 88//14 114//14
f 116//15 26//15 12//15 114//15
f 27//16 14//16 49//16 50//16
f 15//17 28//17 47//17 48//17
f 28//18 27//18 50//18 47//18
f 110//19 9//19 25//19 115//19
f 108//20 4//20 9//20 110//20
f 115//21 25//21 26//21 116//21
f 113//22 21//22 22//22 109//22
f 23//3 20//3 19//3 24//3
f 111//7 8//7 6//7 112//7
f 81//23 91//23 3//23 11//23
f 88//24 84//24 5//24 102//24
f 91//25 90//25 104//25 3//25
f 90//26 78//26 19//26 104//26
f 84//27 81//27 11//27 5//27
f 95//28 94//28 106//28 97//28
f 10//7 7//7 5//7 11//7
f 1//29 10//29 11//29 3//29
f 98//30 99//30 100//30 97//30
f 7//31 101//31 102//31 5//31
f 24//32 100//32 99//32 23//32
f 20//33 103//33 104//33 19//33
f 103//34 1//34 3//34 104//34
f 101//35 105//35 106//35 102//35
f 105//36 98//36 97//36 106//36
f 78//37 79//37 24//37 19//37
f 79//38 86//38 100//38 24//38
f 94//39 88//39 102//39 106//39
f 86//40 95//40 97//40 100//40
f 84//7 111//7 112//7 81//7
f 91//34 113//34 109//34 90//34
f 95//41 115//41 116//41 94//41
f 79//42 108//42 110//42 86//42
f 86//43 110//43 115//43 95//43
f 94//44 116//44 114//44 88//44
f 8//45 111//45 114//45 12//45
f 78//3 107//3 108//3 79//3
f 81//29 112//29 113//29 91//29
f 90//33 109//33 107//33 78//33
usemtl FFFFFF
f 87//46 83//46 64//46 72//46
f 89//33 77//33 60//33 74//33
f 93//47 87//47 72//47 76//47
f 56//48 63//48 61//48 66//48
f 80//49 85//49 70//49 57//49
f 14//50 13//50 31//50 32//50
f 29//51 16//51 35//51 38//51
f 16//52 15//52 34//52 35//52
f 58//48 55//48 73//48 59//48
f 85//53 96//53 67//53 70//53
f 96//54 93//54 76//54 67//54
f 56//48 55//48 198//48 197//48
f 82//29 92//29 65//29 62//29
f 92//34 89//34 74//34 65//34
f 37//55 32//55 40//55 45//55
f 38//56 35//56 43//56 46//56
f 34//57 33//57 41//57 42//57
f 32//58 37//58 54//58 53//58
f 13//51 30//51 36//51 31//51
f 30//51 29//51 38//51 36//51
f 33//59 34//59 51//59 52//59
f 14//60 32//60 53//60 49//60
f 45//51 40//51 39//51 44//51
f 42//51 41//51 46//51 43//51
f 41//51 45//51 44//51 46//51
f 35//61 34//61 42//61 43//61
f 32//62 31//62 39//62 40//62
f 36//63 38//63 46//63 44//63
f 33//64 37//64 45//64 41//64
f 31//65 36//65 44//65 39//65
f 50//66 49//66 53//66 54//66
f 48//67 47//67 52//67 51//67
f 47//68 50//68 54//68 52//68
f 34//69 15//69 48//69 51//69
f 37//70 33//70 52//70 54//70
f 55//48 58//48 69//48 68//48
f 83//7 82//7 62//7 64//7
f 63//48 56//48 75//48 71//48
f 66//48 73//48 203//48 204//48
f 58//71 59//71 60//71 57//71
f 61//72 63//72 64//72 62//72
f 66//73 61//73 62//73 65//73
f 68//74 69//74 70//74 67//74
f 63//75 71//75 72//75 64//75
f 57//76 70//76 69//76 58//76
f 59//77 73//77 74//77 60//77
f 73//78 66//78 65//78 74//78
f 71//79 75//79 76//79 72//79
f 75//80 68//80 67//80 76//80
f 92//81 82//81 10//81 1//81
f 80//82 77//82 20//82 23//82
f 89//83 92//83 1//83 103//83
f 83//84 87//84 101//84 7//84
f 77//3 80//3 57//3 60//3
f 87//85 93//85 105//85 101//85
f 85//86 80//86 23//86 99//86
f 96//87 85//87 99//87 98//87
f 82//88 83//88 7//88 10//88
f 77//89 89//89 103//89 20//89
f 93//90 96//90 98//90 105//90
f 128//91 127//91 118//91 117//91
f 130//91 129//91 120//91 119//91
f 132//91 131//91 122//91 121//91
f 134//91 133//91 124//91 123//91
f 136//91 135//91 126//91 125//91
f 137//92 138//92 127//92 128//92
f 139//93 140//93 129//93 130//93
f 141//94 142//94 131//94 132//94
f 143//95 144//95 133//95 134//95
f 145//96 146//96 135//96 136//96
f 117//97 118//97 147//97 148//97
f 119//98 120//98 149//98 150//98
f 121//99 122//99 151//99 152//99
f 123//100 124//100 153//100 154//100
f 125//101 126//101 155//101 156//101
f 158//102 159//102 160//102 157//102
f 162//102 163//102 164//102 161//102
f 166//102 167//102 168//102 165//102
f 170//102 171//102 172//102 169//102
f 174//102 175//102 176//102 173//102
f 178//103 158//103 157//103 177//103
f 180//104 162//104 161//104 179//104
f 182//105 166//105 165//105 181//105
f 184//106 170//106 169//106 183//106
f 186//107 174//107 173//107 185//107
f 159//108 187//108 188//108 160//108
f 163//109 189//109 190//109 164//109
f 167//110 191//110 192//110 168//110
f 171//111 193//111 194//111 172//111
f 175//112 195//112 196//112 176//112
f 151//113 122//113 168//113 192//113
f 118//114 127//114 157//114 160//114
f 143//115 134//115 170//115 184//115
f 136//116 125//116 175//116 174//116
f 123//117 154//117 193//117 171//117
f 133//118 144//118 183//118 169//118
f 154//119 153//119 194//119 193//119
f 130//116 119//116 163//116 162//116
f 146//120 145//120 186//120 185//120
f 126//114 135//114 173//114 176//114
f 153//121 124//121 172//121 194//121
f 145//122 136//122 174//122 186//122
f 138//120 137//120 178//120 177//120
f 125//123 156//123 195//123 175//123
f 120//114 129//114 161//114 164//114
f 135//124 146//124 185//124 173//124
f 137//125 128//125 158//125 178//125
f 156//119 155//119 196//119 195//119
f 117//126 148//126 187//126 159//126
f 127//127 138//127 177//127 157//127
f 155//128 126//128 176//128 196//128
f 132//116 121//116 167//116 166//116
f 148//119 147//119 188//119 187//119
f 140//120 139//120 180//120 179//120
f 147//129 118//129 160//129 188//129
f 139//130 130//130 162//130 180//130
f 122//114 131//114 165//114 168//114
f 119//131 150//131 189//131 163//131
f 129//132 140//132 179//132 161//132
f 150//119 149//119 190//119 189//119
f 142//120 141//120 182//120 181//120
f 134//116 123//116 171//116 170//116
f 149//133 120//133 164//133 190//133
f 141//134 132//134 166//134 182//134
f 121//135 152//135 191//135 167//135
f 128//116 117//116 159//116 158//116
f 131//136 142//136 181//136 165//136
f 124//114 133//114 169//114 172//114
f 152//119 151//119 192//119 191//119
f 144//120 143//120 184//120 183//120
f 75//48 56//48 197//48 199//48
f 68//48 75//48 199//48 200//48
f 55//48 68//48 200//48 198//48
f 73//48 55//48 202//48 203//48
f 55//48 56//48 201//48 202//48
f 56//48 66//48 204//48 201//48
f 206//51 210//51 209//51 205//51
f 248//137 247//137 246//137 245//137
f 249//138 250//138 247//138 248//138
f 245//139 246//139 251//139 252//139
f 254//140 255//140 256//140 253//140
f 258//141 254//141 253//141 257//141
f 255//142 259//142 260//142 256//142
f 246//143 247//143 253//143 256//143
f 250//144 249//144 258//144 257//144
f 249//145 248//145 254//145 258//145
f 245//146 252//146 259//146 255//146
f 247//147 250//147 257//147 253//147
f 252//148 251//148 260//148 259//148
f 251//149 246//149 256//149 260//149
f 248//150 245//150 255//150 254//150
f 264//137 263//137 262//137 261//137
f 265//138 266//138 263//138 264//138
f 261//139 262//139 267//139 268//139
f 270//140 271//140 272//140 269//140
f 274//141 270//141 269//141 273//141
f 271//142 275//142 276//142 272//142
f 262//143 263//143 269//143 272//143
f 266//144 265//144 274//144 273//144
f 265//145 264//145 270//145 274//145
f 261//146 268//146 275//146 271//146
f 263//147 266//147 273//147 269//147
f 268//148 267//148 276//148 275//148
f 267//149 262//149 272//149 276//149
f 264//150 261//150 271//150 270//150
usemtl 455A64
f 203//3 202//3 210//3 211//3
f 200//63 199//63 207//63 208//63
f 212//51 211//51 225//51 226//51
f 209//7 212//7 220//7 217//7
f 202//63 201//63 209//63 210//63
f 198//3 200//3 208//3 206//3
f 201//7 204//7 212//7 209//7
f 197//34 198//34 206//34 205//34
f 204//34 203//34 211//34 212//34
f 199//7 197//7 205//7 207//7
f 213//48 214//48 216//48 215//48
f 218//48 217//48 220//48 219//48
f 207//7 205//7 213//7 215//7
f 216//3 208//3 222//3 224//3
f 211//3 210//3 218//3 219//3
f 213//48 217//48 218//48 214//48
f 206//3 208//3 216//3 214//3
f 205//7 209//7 217//7 213//7
f 214//3 218//3 210//3 206//3
f 221//7 223//7 235//7 233//7
f 208//51 207//51 221//51 222//51
f 215//48 216//48 224//48 223//48
f 207//7 215//7 223//7 221//7
f 225//3 227//3 231//3 229//3
f 219//48 220//48 228//48 227//48
f 211//3 219//3 227//3 225//3
f 220//7 212//7 226//7 228//7
f 230//34 229//34 231//34 232//34
f 227//48 228//48 232//48 231//48
f 228//7 226//7 230//7 232//7
f 226//151 225//151 229//151 230//151
f 233//7 235//7 239//7 237//7
f 222//152 221//152 233//152 234//152
f 224//3 222//3 234//3 236//3
f 223//153 224//153 236//153 235//153
f 240//3 238//3 242//3 244//3
f 234//154 233//154 237//154 238//154
f 236//3 234//3 238//3 240//3
f 235//155 236//155 240//155 239//155
f 242//156 241//156 243//156 244//156
f 239//157 240//157 244//157 243//157
f 237//7 239//7 243//7 241//7
f 238//158 237//158 241//158 242//158
